# xmcd CD database file
#
# Track frame offsets:
#	150
#	18900
#	30300
#	40575
#	54825
#	66450
#	77775
#	88800
#	100800
#	110025
#	126975
#	142800
#	155925
#	170400
#	180300
#	192750
#
# Disc length: 2697 seconds
#
# Revision: 5
# Processed by: cddbd v1.5.2PL0 Copyright (c) Steve Scherf et al.
# Submitted via: CDex 1.78
#
DISCID=cd0a8710
DTITLE=Various Artist - Country and Western Classics Vol 3 CD1
DYEAR=1994
DGENRE=Country
TTITLE0=Dolly Parton/Kenny Rogers - Islands In The Stream
TTITLE1=Nancy Sinatra/Lee Hazlewood - Greenwich Village Folksong Salesman
TTITLE2=Al Caiola - Bonanza
TTITLE3=Glen Campbell - Rhinestone Cowboy
TTITLE4=Donna Fargo - The Happiest Girl In The USA
TTITLE5=Johnny Horton - Battle Of New Orleans
TTITLE6=Billy Walker - When A Man Loves A Woman
TTITLE7=Judy Miller - Queen Of The House
TTITLE8=Roger Miller - Chug A Lug
TTITLE9=Lynn Anderson - Blue Bayou
TTITLE10=Dean Martin - Detroit City
TTITLE11=Gene Pitney - The Man Who Shot Liberty Valance
TTITLE12=Jeannie C. Riley - Harper Valley P.T.A.
TTITLE13=Kitty Wells - I Can't Stop Loving You
TTITLE14=The Highwayman - Michael
TTITLE15=Skeeter Davis - I Can't Believe It's Over
EXTD=YEAR: 1994
EXTT0=
EXTT1=
EXTT2=
EXTT3=
EXTT4=
EXTT5=
EXTT6=
EXTT7=
EXTT8=
EXTT9=
EXTT10=
EXTT11=
EXTT12=
EXTT13=
EXTT14=
EXTT15=
PLAYORDER=
